<?xml version="1.0" encoding="UTF-8" standalone="no"?>
<!DOCTYPE svg PUBLIC "-//W3C//DTD SVG 1.1//EN" "http://www.w3.org/Graphics/SVG/1.1/DTD/svg11.dtd">
<svg xmlns="http://www.w3.org/2000/svg" version="1.1" viewBox="0.00 0.00 300.00 129.00">
<path fill="#ff4234" d="
  M 144.99 81.27
  A 0.21 0.20 -62.6 0 0 144.62 81.39
  Q 144.57 97.75 144.64 106.83
  C 144.66 110.27 143.99 111.80 140.27 111.82
  Q 127.71 111.87 115.83 111.76
  C 113.24 111.73 112.66 109.41 112.66 107.16
  Q 112.71 86.24 112.65 74.73
  Q 112.63 70.59 117.02 70.61
  Q 134.56 70.69 143.99 70.62
  A 0.63 0.63 0.0 0 0 144.61 69.99
  L 144.61 35.38
  A 0.86 0.86 0.0 0 0 143.75 34.52
  Q 124.21 34.56 116.73 34.58
  C 113.41 34.59 112.51 32.81 112.63 29.66
  Q 112.74 26.78 112.65 22.18
  C 112.58 18.77 113.38 17.04 116.98 17.13
  Q 117.29 17.14 141.46 17.16
  A 2.66 2.65 53.9 0 1 142.28 17.29
  Q 144.92 18.19 144.65 21.77
  Q 144.52 23.53 144.60 33.92
  A 0.62 0.61 0.0 0 0 145.21 34.52
  Q 156.83 34.56 199.74 34.48
  Q 202.30 34.48 203.41 34.79
  A 1.50 1.49 34.8 0 1 203.89 37.44
  Q 181.78 53.60 174.20 59.15
  C 170.46 61.88 169.39 62.82 172.70 67.18
  Q 197.84 100.26 203.26 107.24
  Q 204.46 108.79 204.84 109.80
  A 1.48 1.48 0.0 0 1 203.46 111.79
  Q 188.26 111.82 168.23 111.84
  Q 165.86 111.84 164.57 109.96
  Q 154.43 95.19 144.99 81.27
  Z"
/>
<path fill="#ff4234" d="
  M 238.94 33.67
  C 241.58 33.67 247.16 33.49 250.42 33.99
  C 270.19 37.04 284.81 53.07 284.79 73.21
  C 284.77 93.35 270.13 109.36 250.35 112.37
  C 247.09 112.86 241.50 112.67 238.87 112.66
  C 236.24 112.66 230.65 112.85 227.39 112.35
  C 207.62 109.30 193.01 93.27 193.02 73.13
  C 193.04 52.98 207.68 36.98 227.47 33.97
  C 230.73 33.47 236.31 33.67 238.94 33.67
  Z
  M 208.80 73.08
  Q 208.80 80.46 208.84 81.30
  A 0.74 0.74 0.0 0 0 209.58 82.00
  L 213.81 82.00
  A 0.58 0.57 -0.0 0 0 214.39 81.43
  L 214.39 76.15
  A 0.77 0.77 0.0 0 1 215.14 75.38
  Q 215.68 75.37 218.79 75.37
  Q 221.90 75.37 222.45 75.38
  A 0.77 0.77 0.0 0 1 223.20 76.15
  L 223.20 81.43
  A 0.58 0.57 0.0 0 0 223.78 82.00
  L 228.01 82.00
  A 0.74 0.74 0.0 0 0 228.74 81.30
  Q 228.79 80.46 228.79 73.09
  Q 228.79 65.71 228.75 64.87
  A 0.74 0.74 0.0 0 0 228.01 64.17
  L 223.78 64.17
  A 0.58 0.57 0.0 0 0 223.20 64.74
  L 223.20 70.02
  A 0.77 0.77 0.0 0 1 222.45 70.79
  Q 221.90 70.80 218.79 70.80
  Q 215.68 70.80 215.14 70.79
  A 0.77 0.77 0.0 0 1 214.39 70.02
  L 214.39 64.74
  A 0.58 0.57 0.0 0 0 213.81 64.17
  L 209.58 64.17
  A 0.74 0.74 0.0 0 0 208.84 64.87
  Q 208.80 65.71 208.80 73.08
  Z
  M 239.86 82.40
  C 244.63 82.39 249.09 80.31 249.36 75.01
  Q 249.59 70.52 249.40 64.73
  A 0.58 0.57 89.0 0 0 248.83 64.17
  L 244.40 64.17
  A 0.59 0.59 0.0 0 0 243.81 64.77
  Q 243.91 70.43 243.82 74.37
  A 3.04 3.04 0.0 0 1 241.90 77.12
  Q 240.89 77.52 239.85 77.52
  Q 238.80 77.52 237.79 77.13
  A 3.04 3.04 0.0 0 1 235.86 74.39
  Q 235.76 70.45 235.83 64.79
  A 0.59 0.59 0.0 0 0 235.24 64.19
  L 230.81 64.20
  A 0.58 0.57 -89.2 0 0 230.24 64.77
  Q 230.08 70.56 230.33 75.05
  C 230.62 80.34 235.08 82.40 239.86 82.40
  Z
  M 268.33 72.37
  C 272.19 68.36 268.64 64.55 264.23 64.27
  Q 261.88 64.13 251.47 64.21
  A 0.42 0.42 0.0 0 0 251.06 64.63
  L 251.06 81.47
  A 0.55 0.55 0.0 0 0 251.61 82.02
  Q 252.70 82.02 265.42 81.89
  Q 269.97 81.84 270.30 76.79
  Q 270.39 75.32 268.33 73.21
  A 0.60 0.60 0.0 0 1 268.33 72.37
  Z"
/>
<path fill="#ff4234" d="
  M 49.31 70.66
  Q 55.99 70.60 71.75 70.67
  Q 74.52 70.68 75.46 68.36
  A 2.09 1.99 -35.6 0 0 75.60 67.62
  L 75.60 37.57
  A 1.70 1.65 57.2 0 1 75.73 36.92
  Q 76.74 34.50 79.51 34.50
  Q 93.34 34.52 103.25 34.49
  Q 107.55 34.47 107.55 38.74
  Q 107.58 103.24 107.53 110.25
  Q 107.53 110.70 107.33 111.00
  A 1.87 1.86 -55.1 0 1 104.68 111.48
  L 49.47 71.03
  A 0.33 0.33 0.0 0 0 48.95 71.30
  Q 49.06 88.74 48.93 108.71
  C 48.91 111.15 46.65 111.80 44.44 111.81
  Q 29.38 111.85 21.05 111.78
  Q 16.96 111.75 16.97 107.25
  Q 16.99 62.35 16.97 39.02
  C 16.97 34.84 19.25 34.44 22.91 34.46
  Q 36.31 34.56 44.81 34.46
  Q 49.06 34.41 49.04 39.00
  Q 48.95 60.98 49.04 70.39
  A 0.27 0.27 0.0 0 0 49.31 70.66
  Z"
/>
<rect fill="#ff4234" x="256.25" y="68.85" width="8.26" height="2.24" rx="0.77"/>
<path fill="#ff4234" d="
  M 256.31 75.60
  A 0.46 0.46 0.0 0 1 256.77 75.13
  L 262.78 75.08
  A 2.17 1.00 -0.5 0 1 264.96 76.06
  L 264.96 76.54
  A 2.17 1.00 -0.5 0 1 262.80 77.56
  L 256.79 77.61
  A 0.46 0.46 0.0 0 1 256.33 77.16
  L 256.31 75.60
  Z"
/>
</svg>
